<svg xmlns="http://www.w3.org/2000/svg" xmlns:xlink="http://www.w3.org/1999/xlink" width="512" zoomAndPan="magnify" viewBox="0 0 384 383.999986" height="512" preserveAspectRatio="xMidYMid meet" version="1.0"><defs><clipPath id="34c42ba23a"><path d="M 46.078125 329 L 47 329 L 47 332 L 46.078125 332 Z M 46.078125 329 " clip-rule="nonzero"/></clipPath><clipPath id="7d7ac43447"><path d="M 337 330 L 337.828125 330 L 337.828125 334 L 337 334 Z M 337 330 " clip-rule="nonzero"/></clipPath><clipPath id="a60b6778ec"><path d="M 46.078125 195 L 337.828125 195 L 337.828125 384 L 46.078125 384 Z M 46.078125 195 " clip-rule="nonzero"/></clipPath></defs><path fill="#af1010" d="M 191.996094 187.800781 C 234.65625 187.800781 269.242188 145.792969 269.242188 93.972656 C 269.242188 42.152344 257.886719 0.144531 191.996094 0.144531 C 126.105469 0.144531 114.746094 42.152344 114.746094 93.972656 C 114.746094 145.792969 149.332031 187.800781 191.996094 187.800781 Z M 191.996094 187.800781 " fill-opacity="1" fill-rule="nonzero"/><g clip-path="url(#34c42ba23a)"><path fill="#af1010" d="M 46.089844 331.0625 C 46.078125 327.90625 46.0625 330.175781 46.089844 331.0625 Z M 46.089844 331.0625 " fill-opacity="1" fill-rule="nonzero"/></g><g clip-path="url(#7d7ac43447)"><path fill="#af1010" d="M 337.890625 333.53125 C 337.933594 332.664062 337.90625 327.53125 337.890625 333.53125 Z M 337.890625 333.53125 " fill-opacity="1" fill-rule="nonzero"/></g><g clip-path="url(#a60b6778ec)"><path fill="#af1010" d="M 337.738281 327.28125 C 336.304688 237.011719 324.515625 211.292969 234.300781 195.003906 C 234.300781 195.003906 221.601562 211.1875 192 211.1875 C 162.402344 211.1875 149.699219 195.003906 149.699219 195.003906 C 60.464844 211.109375 47.960938 236.449219 46.316406 324.34375 C 46.179688 331.519531 46.117188 331.898438 46.09375 331.066406 C 46.101562 332.625 46.105469 335.515625 46.105469 340.550781 C 46.105469 340.550781 67.585938 383.847656 192 383.847656 C 316.417969 383.847656 337.894531 340.550781 337.894531 340.550781 C 337.894531 337.3125 337.898438 335.066406 337.898438 333.535156 C 337.875 334.050781 337.828125 333.050781 337.738281 327.277344 Z M 337.738281 327.28125 " fill-opacity="1" fill-rule="nonzero"/></g></svg>