<svg xmlns="http://www.w3.org/2000/svg" xmlns:xlink="http://www.w3.org/1999/xlink" width="512" zoomAndPan="magnify" viewBox="0 0 384 383.999986" height="512" preserveAspectRatio="xMidYMid meet" version="1.0"><path fill="#af1010" d="M 383.96875 191.984375 C 383.871094 297.640625 298.582031 384 191.886719 383.933594 C 85.90625 383.871094 0.03125 298.324219 0.0664062 191.886719 C 0.0976562 85.320312 86.328125 0.0664062 192.046875 0.03125 C 297.996094 0 383.96875 86.035156 383.96875 191.984375 Z M 225.175781 234.023438 C 225.175781 210.367188 225.140625 186.746094 225.207031 163.089844 C 225.238281 154.140625 222.050781 146.558594 215.445312 140.667969 C 205.03125 131.363281 192.925781 129.410156 179.945312 134 C 167.546875 138.390625 159.25 150.300781 159.3125 163.773438 C 159.574219 210.890625 159.445312 258.007812 159.378906 305.125 C 159.378906 331.742188 182.1875 336.230469 193.089844 336.199219 C 209.488281 336.132812 225.597656 322.921875 225.273438 303.953125 C 224.847656 280.652344 225.175781 257.324219 225.175781 234.023438 Z M 227.417969 82.847656 C 227.386719 63.191406 211.703125 47.539062 192.015625 47.539062 C 172.296875 47.539062 156.546875 63.320312 156.582031 83.042969 C 156.613281 102.53125 172.523438 118.410156 192.046875 118.410156 C 211.703125 118.410156 227.417969 102.597656 227.417969 82.847656 Z M 227.417969 82.847656 " fill-opacity="1" fill-rule="nonzero"/></svg>